# xmcd
#
# Track frame offsets:
#	150
#	18911
#	29710
#	45488
#	62154
#	78338
#	97770
#	115315
#	134104
#	149208
#	163233
#	181208
#	198038
#	215562
#	234731
#	251057
#
# Disc length: 3663 seconds
#
# Revision: 1
# Processed by: cddbd v1.5.2PL0 Copyright (c) Steve Scherf et al.
# Submitted via: audiograbber 1.83.01
#
DISCID=ec0e4d10
DTITLE=Michael van Merwyk - Songster
DYEAR=2018
DGENRE=Blues
TTITLE0=Heroes
TTITLE1=Breaking the law
TTITLE2=Bankrobber
TTITLE3=Kisses sweeter than wine
TTITLE4=Get it on
TTITLE5=Black is the colour
TTITLE6=Love will tear us apart
TTITLE7=You've got another thing coming
TTITLE8=Personal Jesus
TTITLE9=Should I stay
TTITLE10=I was made for loving you
TTITLE11=Over the hill
TTITLE12=Living after midnight
TTITLE13=Number of the beast
TTITLE14=I feel you
TTITLE15=I still haven't found
EXTD=
EXTT0=
EXTT1=
EXTT2=
EXTT3=
EXTT4=
EXTT5=
EXTT6=
EXTT7=
EXTT8=
EXTT9=
EXTT10=
EXTT11=
EXTT12=
EXTT13=
EXTT14=
EXTT15=
PLAYORDER=
